# xmcd
#
# Track frame offsets: 
#        150
#        13542
#        31115
#        44882
#        55670
#        75510
#        88035
#        108020
#        139620
#        151345
#        164862
#        173770
#        195992
#        222947
#        238430
#        252500
#        268082
#        300700
#        312460
#        327685
#        344387
#
# Disc length: 4768 seconds
#
# Revision: 2
# Processed by: cddbd v1.5.2PL0 Copyright (c) Steve Scherf et al.
# Submitted via: ExactAudioCopy v0.99pb4
#
DISCID=2e129e15
DTITLE=Eddie Harris - Cool Sax, Warm Heart and Cool Sax Broadway to Ho
DTITLE=llywood
DYEAR=1964
DGENRE=Jazz
TTITLE0=Chicago Senerade
TTITLE1=Since I Fell For You
TTITLE2=Stum Stang
TTITLE3=Django Castle
TTITLE4=More Sould Zhan Soulful
TTITLE5=Everything Happens To Me
TTITLE6=But Not For Me
TTITLE7=Brother Ed
TTITLE8=Hip Hopin
TTITLE9=People
TTITLE10=From Russia With Love
TTITLE11=Topcapi
TTITLE12=Dayz Of Wine And Roses
TTITLE13=Groove Movies
TTITLE14=Who Can I Turn To
TTITLE15=Theme From Malamondo
TTITLE16=Sarahs Theme
TTITLE17=On Green Dolphin Street
TTITLE18=Night Must Fall
TTITLE19=I've Grown Accustomed To Her Face
TTITLE20=Little Lo Lo
EXTD=YEAR: 2002
EXTT0=
EXTT1=
EXTT2=
EXTT3=
EXTT4=
EXTT5=
EXTT6=
EXTT7=
EXTT8=
EXTT9=
EXTT10=
EXTT11=
EXTT12=
EXTT13=
EXTT14=
EXTT15=
EXTT16=
EXTT17=
EXTT18=
EXTT19=
EXTT20=
PLAYORDER=
